<?xml version="1.0" standalone="no"?>
<!DOCTYPE svg PUBLIC "-//W3C//DTD SVG 20010904//EN"
 "http://www.w3.org/TR/2001/REC-SVG-20010904/DTD/svg10.dtd">
<svg version="1.0" xmlns="http://www.w3.org/2000/svg"
 width="824.000000pt" height="824.000000pt" viewBox="0 0 824.000000 824.000000"
 preserveAspectRatio="xMidYMid meet">

<rect width="100%" height="100%" fill="#72E861"/>

<g transform="translate(0.000000,824.000000) scale(0.100000,-0.100000)"
fill="#f8fafc" stroke="none">
<path d="M0 4120 l0 -4120 4120 0 4120 0 0 4120 0 4120 -4120 0 -4120 0 0
-4120z m4306 2979 c593 -57 1095 -339 1451 -813 544 -726 544 -1715 -1 -2443
-138 -185 -349 -382 -542 -507 -461 -297 -1058 -393 -1591 -255 -362 93 -704
295 -973 576 -339 353 -531 782 -570 1276 -26 324 44 689 190 996 132 275 349
550 577 732 413 329 943 489 1459 438z m-2685 -4768 c31 -12 75 -35 98 -51 45
-33 104 -107 95 -121 -2 -5 -35 -26 -71 -48 l-67 -40 -52 49 c-162 154 -411
39 -431 -199 -15 -180 100 -321 261 -321 75 0 151 34 194 86 l29 35 68 -39
c38 -22 71 -44 72 -49 6 -18 -60 -95 -111 -130 -120 -82 -307 -97 -439 -35
-136 63 -235 198 -258 352 -14 90 4 200 48 289 53 110 187 216 303 241 70 14
197 5 261 -19z m4532 -4 c51 -23 157 -115 157 -136 0 -5 -26 -28 -58 -53 l-57
-46 -47 43 c-73 66 -169 81 -249 40 -49 -26 -60 -93 -22 -137 16 -17 86 -43
204 -73 161 -41 250 -139 249 -274 -1 -101 -51 -175 -148 -223 -64 -32 -71
-33 -187 -33 -111 0 -125 2 -180 28 -65 31 -102 61 -146 121 l-29 39 61 44 61
45 42 -40 c53 -51 96 -72 160 -79 103 -11 180 33 180 103 0 60 -42 90 -180
131 -66 19 -141 47 -168 61 -134 73 -165 252 -64 367 69 79 143 106 273 102
72 -2 101 -8 148 -30z m-3707 -59 c79 -211 307 -804 311 -810 2 -5 -41 -8 -95
-8 l-100 0 -35 98 -35 97 -171 3 c-170 2 -171 2 -179 -20 -5 -13 -21 -58 -36
-100 l-28 -77 -94 -3 c-52 -2 -94 -1 -94 2 0 2 75 203 167 447 l166 443 98 0
97 0 28 -72z m994 -8 l0 -80 -130 0 -130 0 0 -365 0 -365 -90 0 -90 0 0 365 0
365 -130 0 -130 0 0 80 0 80 350 0 350 0 0 -80z m390 70 c0 -5 52 -141 115
-302 63 -161 115 -298 115 -305 0 -34 19 -5 48 70 18 45 72 186 121 312 l89
230 111 3 111 3 0 -446 0 -445 -85 0 -85 0 -2 297 -3 297 -64 -170 c-35 -93
-86 -226 -113 -296 l-49 -128 -60 0 c-32 0 -62 0 -66 -1 -7 -1 -114 270 -190
476 -20 55 -39 103 -42 107 -3 4 -6 -126 -6 -288 l0 -294 -87 0 -88 0 0 445 0
445 115 0 c69 0 115 -4 115 -10z m1428 -85 c120 -312 302 -789 302 -794 0 -3
-44 -5 -98 -3 l-99 3 -34 97 -34 97 -170 3 -171 2 -32 -99 -33 -100 -94 -3
c-52 -2 -95 0 -95 3 0 4 70 193 156 420 86 228 161 427 166 442 l10 28 96 -3
95 -3 35 -90z m1432 -75 l0 -170 180 0 180 0 0 170 0 170 90 0 90 0 0 -444 0
-445 -90 -3 -90 -3 0 188 0 187 -180 0 -180 0 0 -187 0 -188 -90 3 -90 3 0
445 0 444 90 0 90 0 0 -170z"/>
<path d="M3895 6899 c-341 -43 -649 -169 -910 -373 -89 -70 -265 -249 -336
-341 -265 -345 -395 -755 -376 -1185 17 -376 125 -695 336 -995 77 -110 333
-364 451 -448 123 -87 355 -203 498 -250 795 -259 1639 43 2117 758 282 421
370 1013 225 1515 -138 483 -498 916 -945 1138 -174 87 -386 151 -585 178
-115 15 -365 17 -475 3z m273 -608 c28 -15 376 -391 389 -419 25 -60 -42 -131
-113 -118 -25 5 -55 31 -128 108 l-96 101 0 -351 0 -350 -26 -31 c-21 -25 -33
-31 -66 -31 -46 0 -73 13 -89 42 -8 15 -11 126 -10 372 l2 351 -98 -96 c-54
-53 -109 -102 -122 -109 -56 -29 -131 20 -131 86 0 33 10 45 346 402 43 45 55
52 88 52 20 0 45 -4 54 -9z m-1074 -75 c34 -14 45 -30 417 -632 80 -128 88
-168 43 -209 -37 -34 -96 -34 -127 -1 -13 13 -99 148 -192 300 -94 151 -172
275 -175 276 -3 0 -12 -17 -22 -38 -9 -20 -37 -84 -62 -141 -169 -382 -256
-869 -217 -1210 41 -344 230 -642 543 -851 263 -176 516 -255 813 -254 179 1
293 19 457 74 424 142 738 429 858 787 48 146 63 268 56 478 -11 380 -96 721
-271 1098 -15 32 -28 57 -30 55 -1 -2 -78 -124 -170 -273 -92 -148 -179 -282
-193 -297 -37 -40 -93 -39 -133 1 -52 53 -67 20 225 489 180 288 213 336 242
348 29 12 39 12 68 0 41 -17 60 -43 124 -171 145 -291 243 -607 298 -965 26
-164 26 -531 1 -650 -88 -418 -356 -756 -767 -969 -548 -282 -1157 -248 -1669
93 -332 221 -546 528 -618 883 -27 133 -24 489 5 678 44 281 138 581 268 854
81 171 120 230 158 247 38 16 31 16 70 0z m531 -1286 c34 -21 65 -73 65 -109
0 -71 -64 -134 -137 -134 -53 0 -91 24 -117 77 -25 52 -15 100 34 148 32 32
44 38 80 38 25 0 56 -8 75 -20z m1125 3 c32 -18 70 -80 70 -112 0 -69 -62
-132 -129 -133 -137 -2 -188 168 -74 243 35 23 96 24 133 2z m-510 -354 c55
-12 70 -29 70 -79 0 -43 -22 -82 -71 -124 -38 -32 -42 -41 -42 -80 0 -56 30
-98 85 -121 56 -22 110 -13 183 30 61 37 84 42 103 23 24 -24 14 -69 -22 -103
-108 -101 -278 -110 -384 -19 l-43 37 -27 -26 c-54 -50 -111 -71 -192 -71 -85
0 -148 24 -206 79 -36 34 -46 79 -22 103 19 19 42 14 103 -23 73 -43 127 -52
183 -30 56 23 82 61 82 119 0 40 -5 49 -41 83 -23 21 -47 50 -55 65 -15 30
-18 86 -5 106 23 38 190 55 301 31z"/>
<path d="M2264 1982 c-29 -81 -55 -155 -59 -164 -7 -17 2 -18 112 -18 l120 0
-57 160 c-31 87 -58 161 -61 164 -2 2 -27 -62 -55 -142z"/>
<path d="M5120 2129 c0 -2 -25 -73 -55 -158 -30 -85 -55 -158 -55 -163 0 -4
52 -8 115 -8 63 0 115 2 115 5 0 7 -112 319 -116 324 -2 2 -4 2 -4 0z"/>
</g>
</svg>
